<svg width="18" height="18" viewBox="0 0 18 18" fill="none" xmlns="http://www.w3.org/2000/svg">
<path d="M18 9C18 13.9706 13.9706 18 9 18C4.02944 18 0 13.9706 0 9C0 4.02944 4.02944 0 9 0C13.9706 0 18 4.02944 18 9Z" fill="#05C556"/>
<path d="M8.13262 12.8382C8.17467 12.8463 8.21725 12.8503 8.25976 12.8503C8.45558 12.8503 8.64999 12.7652 8.78323 12.6016L13.9501 6.24937C14.1852 5.96057 14.1414 5.53588 13.8526 5.30086C13.5638 5.06584 13.1391 5.10943 12.9041 5.39842L8.06951 11.342L5.01205 8.71401C4.72975 8.47143 4.30401 8.5036 4.06125 8.7859C3.81867 9.06821 3.85084 9.49395 4.13315 9.7367L7.56598 12.6874C7.69324 12.7967 7.84969 12.8503 8.00526 12.8503C8.04797 12.8503 8.09063 12.8463 8.13262 12.8382Z" fill="white"/>
</svg>
