<svg width="14" height="14" viewBox="0 0 14 14" fill="none" xmlns="http://www.w3.org/2000/svg">
<g clip-path="url(#clip0_87_2576)">
<path d="M2.37836 11.5213H3.70587C3.93742 11.5213 4.12508 11.333 4.12508 11.1008V5.16658C4.12508 4.9343 3.93739 4.74604 3.70587 4.74604H2.37836C2.14681 4.74604 1.95914 4.93433 1.95914 5.16658V11.1008C1.95911 11.333 2.14681 11.5213 2.37836 11.5213ZM6.64305 11.5213H7.97056C8.20211 11.5213 8.38977 11.2461 8.38977 10.9065V2.23025C8.38977 1.89066 8.20208 1.61539 7.97056 1.61539H6.64305C6.41153 1.61539 6.22383 1.89066 6.22383 2.23025V10.9065C6.22383 11.2461 6.4115 11.5213 6.64305 11.5213ZM10.9077 11.5213H12.2352C12.4668 11.5213 12.6545 11.2656 12.6545 10.95V2.88763C12.6545 2.57207 12.4668 2.3163 12.2352 2.3163H10.9077C10.6762 2.3163 10.4885 2.57207 10.4885 2.88763V10.95C10.4885 11.2655 10.6762 11.5213 10.9077 11.5213ZM0.538452 12.2222H14V12.9231H0.538452V12.2222Z" fill="#FF2D2E"/>
</g>
<defs>
<clipPath id="clip0_87_2576">
<rect width="14" height="14" fill="white"/>
</clipPath>
</defs>
</svg>
