<svg width="20" height="20" viewBox="0 0 20 20" fill="none" xmlns="http://www.w3.org/2000/svg">
<path d="M17.0469 14.7655H17.0481V14.7583L17.0469 14.7655Z" fill="#272536"/>
<path d="M18.0131 9.29179C17.8082 9.08228 17.4478 9.08056 17.2399 9.28464L16.8812 9.63736C16.6912 5.60491 13.4147 2.46562 9.36331 2.46562C5.20889 2.46562 1.8291 5.84541 1.8291 9.99985C1.8291 14.1546 5.20889 17.5344 9.36331 17.5344C11.5773 17.5344 13.6725 16.5545 15.104 14.8554C15.1677 14.8067 15.2194 14.7481 15.2585 14.6821C15.2637 14.6758 15.2693 14.6694 15.2751 14.6637L15.3119 14.6052L15.2998 14.5989C15.3245 14.534 15.3359 14.4714 15.3359 14.4071C15.3359 14.0931 15.0811 13.8377 14.7671 13.8377C14.5783 13.8377 14.4015 13.9381 14.2987 14.1012C13.072 15.5747 11.2731 16.4202 9.36333 16.4202C5.82339 16.4202 2.94241 13.5404 2.94241 9.99985C2.94241 6.46017 5.82339 3.57949 9.36333 3.57949C12.8803 3.57949 15.7458 6.42146 15.7831 9.92954L15.1443 9.28866C14.9382 9.08116 14.5771 9.08058 14.371 9.28696C14.1564 9.50049 14.1564 9.84776 14.3699 10.0616L15.7188 11.4137C15.8216 11.5176 15.9593 11.5744 16.1051 11.5744L16.1114 11.5738L16.1258 11.5784C16.1568 11.5859 16.1906 11.5951 16.228 11.5951C16.372 11.5951 16.5081 11.5394 16.6114 11.4384L18.0068 10.0653C18.1113 9.96284 18.1698 9.82477 18.171 9.67843C18.1722 9.53261 18.1159 9.39568 18.0131 9.29179Z" fill="#231F20"/>
</svg>
