<svg width="24" height="24" viewBox="0 0 24 24" fill="none" xmlns="http://www.w3.org/2000/svg">
<circle cx="12" cy="12" r="12" fill="#FF2D2E"/>
<path d="M18.3556 16.082C18.3556 16.2593 18.3252 16.425 18.2646 16.579C18.2039 16.733 18.1176 16.8683 18.0056 16.985C17.8936 17.1017 17.7629 17.1927 17.6136 17.258C17.4642 17.3233 17.3009 17.356 17.1236 17.356H6.95955C6.78222 17.356 6.61422 17.3233 6.45555 17.258C6.29689 17.1927 6.15689 17.1017 6.03555 16.985C5.91422 16.8683 5.81855 16.733 5.74855 16.579C5.67855 16.425 5.64355 16.2593 5.64355 16.082V9.096C5.64355 8.74134 5.76722 8.44034 6.01455 8.193C6.26189 7.94567 6.56289 7.822 6.91755 7.822H17.0816C17.4362 7.822 17.7372 7.94567 17.9846 8.193C18.2319 8.44034 18.3556 8.74134 18.3556 9.096V11H15.1776C14.8229 11 14.5219 11.1213 14.2746 11.364C14.0272 11.6067 13.9036 11.9053 13.9036 12.26C13.9129 12.5027 13.9642 12.7173 14.0576 12.904C14.1322 13.0627 14.2559 13.2073 14.4286 13.338C14.6012 13.4687 14.8509 13.534 15.1776 13.534H18.3556V16.082ZM16.4516 7.178H10.0956C10.5996 6.91667 11.0756 6.66467 11.5236 6.422C11.9156 6.21667 12.3029 6.01134 12.6856 5.806C13.0682 5.60067 13.3669 5.442 13.5816 5.33C13.9082 5.15267 14.1999 5.071 14.4566 5.085C14.7132 5.099 14.9302 5.14334 15.1076 5.218C15.3129 5.32067 15.4902 5.456 15.6396 5.624L16.4516 7.178ZM14.5476 12.26C14.5476 12.0827 14.6082 11.9333 14.7296 11.812C14.8509 11.6907 15.0002 11.63 15.1776 11.63C15.3549 11.63 15.5042 11.6907 15.6256 11.812C15.7469 11.9333 15.8076 12.0827 15.8076 12.26C15.8076 12.4373 15.7469 12.589 15.6256 12.715C15.5042 12.841 15.3549 12.904 15.1776 12.904C15.0002 12.904 14.8509 12.841 14.7296 12.715C14.6082 12.589 14.5476 12.4373 14.5476 12.26Z" fill="white"/>
</svg>
