<svg width="18" height="18" viewBox="0 0 18 18" fill="none" xmlns="http://www.w3.org/2000/svg">
<path d="M9.65024 8.85488L15.5644 2.94132C15.6166 2.88909 15.658 2.82709 15.6863 2.75886C15.7145 2.69062 15.7291 2.61749 15.7291 2.54363C15.7291 2.46977 15.7145 2.39664 15.6863 2.3284C15.658 2.26017 15.6166 2.19817 15.5644 2.14594C15.5121 2.09372 15.4501 2.05229 15.3819 2.02403C15.3137 1.99576 15.2405 1.98122 15.1667 1.98122C15.0928 1.98122 15.0197 1.99576 14.9515 2.02403C14.8832 2.05229 14.8212 2.09372 14.769 2.14594L8.85487 8.05951L2.9413 2.14594C2.88908 2.09372 2.82708 2.05229 2.75884 2.02403C2.69061 1.99576 2.61747 1.98122 2.54362 1.98122C2.46976 1.98122 2.39662 1.99576 2.32839 2.02403C2.26015 2.05229 2.19815 2.09372 2.14593 2.14594C2.04046 2.25142 1.9812 2.39447 1.9812 2.54363C1.9812 2.61749 1.99575 2.69062 2.02401 2.75886C2.05228 2.82709 2.0937 2.88909 2.14593 2.94132L8.05949 8.85488L2.14593 14.7684C2.04046 14.8739 1.9812 15.017 1.9812 15.1661C1.9812 15.3153 2.04046 15.4583 2.14593 15.5638C2.2514 15.6693 2.39445 15.7285 2.54362 15.7285C2.69278 15.7285 2.83583 15.6693 2.9413 15.5638L8.85487 9.65026L14.7684 15.5644C14.8207 15.6166 14.8827 15.658 14.9509 15.6863C15.0191 15.7146 15.0923 15.7291 15.1661 15.7291C15.24 15.7291 15.3131 15.7146 15.3813 15.6863C15.4496 15.658 15.5116 15.6166 15.5638 15.5644C15.616 15.5122 15.6575 15.4502 15.6857 15.3819C15.714 15.3137 15.7285 15.2406 15.7285 15.1667C15.7285 15.0928 15.714 15.0197 15.6857 14.9515C15.6575 14.8832 15.616 14.8212 15.5638 14.769L9.65024 8.85488Z" fill="black"/>
</svg>
